<?xml version="1.0" encoding="utf-8"?>
<!-- Generator: Adobe Illustrator 22.0.1, SVG Export Plug-In . SVG Version: 6.00 Build 0)  -->
<svg version="1.1" id="Layer_1" xmlns="http://www.w3.org/2000/svg" xmlns:xlink="http://www.w3.org/1999/xlink" x="0px" y="0px"
	 viewBox="0 0 200 100" style="enable-background:new 0 0 200 100;" xml:space="preserve">
<g>
	<path d="M29.9,28.1l5.5,0.1l-4.8,35.3l18.2,0.2l-0.6,4.3l-23.7-0.2L29.9,28.1z"/>
	<path d="M83,53.8c-1.4,10.5-9.9,15-17.3,15C57.4,68.7,51.8,63,53,54c1.3-9.5,8.8-15,17.3-15C79,39.1,84.2,45.1,83,53.8z M58.6,53.9
		c-0.9,6.2,2.4,11,7.8,11c5.3,0.1,9.9-4.6,10.8-11c0.7-4.8-1.1-11-7.7-11S59.4,48.4,58.6,53.9z"/>
	<path d="M90.7,48.8c0.5-3.4,0.8-6.2,1-8.9l4.9,0L96,45.5l0.3,0c1.9-3.8,5.6-6.2,9.3-6.1c0.6,0,1.1,0.1,1.6,0.2l-0.7,4.9
		c-0.6-0.1-1.1-0.2-1.9-0.2c-3.9,0-7.1,2.7-8.4,6.6c-0.2,0.7-0.5,1.5-0.6,2.4l-2.1,15.2L88,68.3L90.7,48.8z"/>
	<path d="M113,55.3c-0.8,7,3.6,9.9,9.2,10c4,0,6.5-0.6,8.7-1.4l0.4,3.7c-2.1,0.8-5.6,1.7-10.4,1.7c-9.4-0.1-14.3-5.9-13.1-14.5
		c1.2-8.6,7.5-15.3,16.5-15.2c10,0.1,11.5,8.3,10.8,13.5c-0.1,1.1-0.4,1.9-0.5,2.4L113,55.3z M129.8,51.7c0.5-3.3-0.3-8.4-6.6-8.5
		c-5.6-0.1-8.8,4.7-9.7,8.3L129.8,51.7z"/>
	<path d="M142.6,48.1c0.4-2.9,0.7-5.4,0.8-7.7l4.9,0l-0.4,4.6l0.2,0c2.1-2.7,5.3-5.2,10.3-5.1c4.2,0,7,2.4,7.9,5.8l0.1,0
		c1.2-1.6,2.5-2.8,3.9-3.7c2-1.3,4.1-2,7-1.9c4,0,9.7,2.6,8.4,12.4l-2.3,16.8l-5.4-0.1l2.2-16.1c0.7-5.5-1-8.8-5.4-8.8
		c-3.2,0-5.9,2.1-7.2,4.6c-0.3,0.7-0.7,1.6-0.8,2.6l-2.4,17.6L159,69l2.3-17.1c0.6-4.5-1.1-7.8-5.3-7.9c-3.5,0-6.4,2.5-7.6,5.1
		c-0.4,0.8-0.7,1.6-0.8,2.5l-2.4,17.2l-5.4-0.1L142.6,48.1z"/>
</g>
</svg>
